<svg width="970" height="354" viewBox="0 0 970 354" fill="none" xmlns="http://www.w3.org/2000/svg">
<path d="M964.172 206.319C964.172 213.96 957.978 220.154 950.337 220.154V220.154C942.696 220.154 936.502 213.96 936.502 206.319V156.285C936.502 148.771 934.603 143.046 930.805 139.11C927.188 134.996 921.853 132.938 914.8 132.938H884.688V206.319C884.688 213.96 878.494 220.154 870.853 220.154V220.154C863.212 220.154 857.018 213.96 857.018 206.319V71.3655C857.018 63.7246 863.212 57.5304 870.853 57.5304V57.5304C878.494 57.5304 884.688 63.7246 884.688 71.3655V106.639H917.512C931.8 106.639 943.103 110.844 951.422 119.252C959.922 127.661 964.172 138.932 964.172 153.065V206.319Z" fill="#FBAC30"/>
<path d="M793.081 222.837C784.22 222.837 776.081 221.496 768.666 218.812C761.251 215.95 754.922 212.014 749.677 207.004C744.613 201.816 740.634 195.644 737.741 188.488C734.847 181.153 733.4 173.102 733.4 164.336C733.4 155.748 734.757 147.877 737.469 140.721C740.363 133.564 744.342 127.482 749.406 122.472C754.469 117.284 760.528 113.259 767.581 110.396C774.634 107.534 782.411 106.103 790.911 106.103C799.049 106.103 806.374 107.355 812.884 109.86C819.395 112.364 825.002 115.942 829.704 120.594C834.406 125.066 838.023 130.613 840.555 137.232C843.087 143.672 844.443 150.829 844.624 158.7C844.624 161.205 844.533 163.262 844.353 164.873C844.353 166.483 844.172 168.808 843.81 171.85V171.85C843.339 174.489 841.044 176.412 838.362 176.412H763.241C767.4 190.009 777.528 196.807 793.624 196.807C799.411 196.807 805.017 196.36 810.443 195.465C816.049 194.571 817.577 193.839 824.449 192.05V192.05C830.035 190.827 835.549 194.388 836.73 199.984L837.195 202.188C838.608 208.882 834.393 215.472 827.723 216.997L827.263 217.102C820.39 219.07 827.263 217.102 813.97 220.69C807.821 222.122 800.858 222.837 793.081 222.837ZM762.698 152.26H817.767C816.501 145.462 813.517 140.184 808.815 136.427C804.294 132.67 798.416 130.791 791.182 130.791C783.587 130.791 777.347 132.67 772.464 136.427C767.581 140.184 764.326 145.462 762.698 152.26Z" fill="#FBAC30"/>
<path d="M724.05 206.319C724.05 213.96 717.855 220.154 710.214 220.154V220.154C702.574 220.154 696.379 213.96 696.379 206.319V156.285C696.379 148.771 694.48 143.046 690.683 139.11C687.065 134.996 681.73 132.938 674.677 132.938H644.565V206.319C644.565 213.96 638.371 220.154 630.73 220.154V220.154C623.089 220.154 616.895 213.96 616.895 206.319V27.7406C616.895 20.0996 623.089 13.9055 630.73 13.9055V13.9055C638.371 13.9055 644.565 20.0997 644.565 27.7406V106.639H677.39C691.677 106.639 702.98 110.844 711.3 119.252C719.8 127.661 724.05 138.932 724.05 153.065V206.319Z" fill="#FBAC30"/>
<path d="M604.362 207.139C604.362 214.178 598.655 219.885 591.616 219.885H519.073C512.391 219.885 506.974 214.469 506.974 207.786V207.786C506.974 205.023 507.92 202.343 509.655 200.191L564.756 131.865H521.349C514.309 131.865 508.602 126.158 508.602 119.118V119.118C508.602 112.078 514.309 106.371 521.349 106.371H591.731C598.857 106.371 604.634 112.148 604.634 119.274V119.274C604.634 122.212 603.631 125.063 601.79 127.354L547.937 194.392H591.616C598.655 194.392 604.362 200.099 604.362 207.139V207.139Z" fill="#FBAC30"/>
<path d="M439.439 222.837C430.759 222.837 422.982 221.406 416.11 218.544C409.237 215.502 403.36 211.387 398.477 206.199C393.774 200.832 390.157 194.571 387.626 187.414C385.094 180.258 383.828 172.565 383.828 164.336C383.828 155.927 385.094 148.145 387.626 140.989C390.338 133.833 394.136 127.75 399.019 122.741C403.902 117.553 409.78 113.527 416.652 110.665C423.705 107.802 431.572 106.371 440.253 106.371H476.951C488.146 106.371 497.221 115.446 497.221 126.642V206.186C497.221 213.752 491.088 219.885 483.522 219.885H473.848C471.625 219.885 469.822 218.083 469.822 215.86V215.86C460.418 220.512 450.291 222.837 439.439 222.837ZM442.152 131.596C432.386 131.596 424.79 134.459 419.365 140.184C414.12 145.909 411.498 154.049 411.498 164.604C411.498 174.802 414.12 182.852 419.365 188.756C424.79 194.66 432.025 197.612 441.067 197.612C445.95 197.612 450.652 196.896 455.174 195.465C459.695 194.034 464.578 191.798 469.822 188.756V131.596H442.152Z" fill="#FBAC30"/>
<path d="M310.928 272.483C298.269 272.483 298.265 271.957 284.196 268.189C281.236 267.397 278.76 266.7 276.695 266.094C270.886 264.39 267.851 258.705 269.101 252.782L269.528 250.76C270.927 244.13 277.726 240.141 284.196 242.154V242.154C293.567 244.306 293.567 244.306 293.567 244.306C299.354 245.737 305.051 246.453 310.657 246.453C319.7 246.453 326.934 244.037 332.359 239.207C337.785 234.556 341.221 227.847 342.668 219.08C337.423 219.796 332.088 220.333 326.662 220.69C321.237 221.048 315.811 221.227 310.386 221.227C279.279 221.227 263.726 205.752 263.726 174.802V120.475C263.726 112.834 269.92 106.639 277.561 106.639V106.639C285.202 106.639 291.396 112.834 291.396 120.475V172.118C291.396 188.041 298.631 196.002 313.099 196.002C318.162 196.002 323.136 195.823 328.019 195.465C333.083 195.107 338.147 194.571 343.21 193.855V94.5449C343.21 86.904 349.405 80.7098 357.046 80.7098V80.7098C364.686 80.7098 370.881 86.904 370.881 94.5449V211.566C370.881 220.869 369.434 229.278 366.54 236.792C363.827 244.306 359.849 250.657 354.604 255.845C349.359 261.212 343.03 265.327 335.615 268.189C328.2 271.052 319.971 272.483 310.928 272.483Z" fill="#FBAC30"/>
<path d="M198.04 219.885C189.178 219.885 181.04 218.454 173.625 215.592C166.21 212.729 159.79 208.704 154.364 203.516C149.12 198.328 144.96 192.155 141.886 184.999C138.992 177.664 137.545 169.614 137.545 160.847C137.545 151.902 139.083 143.851 142.157 136.695C145.231 129.539 149.481 123.456 154.907 118.447C160.333 113.259 166.753 109.323 174.168 106.639C181.583 103.777 189.54 102.346 198.04 102.346C207.083 102.346 215.221 103.777 222.455 106.639C229.87 109.502 236.2 113.527 241.444 118.715C246.87 123.725 251.03 129.897 253.923 137.232C256.817 144.388 258.264 152.26 258.264 160.847C258.264 169.614 256.726 177.664 253.652 184.999C250.758 192.155 246.689 198.328 241.444 203.516C236.2 208.704 229.87 212.729 222.455 215.592C215.04 218.454 206.902 219.885 198.04 219.885ZM198.04 128.645C188.274 128.645 180.407 131.597 174.439 137.5C168.471 143.404 165.487 151.186 165.487 160.847C165.487 170.866 168.471 178.917 174.439 184.999C180.407 190.903 188.274 193.855 198.04 193.855C207.806 193.855 215.673 190.903 221.641 184.999C227.609 178.917 230.593 170.866 230.593 160.847C230.593 151.186 227.609 143.404 221.641 137.5C215.673 131.597 207.806 128.645 198.04 128.645Z" fill="#FBAC30"/>
<path d="M120.359 197.963C127.336 207.193 120.752 220.422 109.183 220.422V220.422C104.712 220.422 100.51 218.289 97.8718 214.679L63.8193 168.093C62.3725 168.093 61.0161 168.182 59.7501 168.361C58.4842 168.361 57.1278 168.361 55.681 168.361H33.165V206.316C33.165 214.106 26.8493 220.422 19.0586 220.422V220.422C11.2678 220.422 4.95215 214.106 4.95215 206.316V76.0979C4.95215 68.2146 11.3428 61.824 19.226 61.824H59.2076C67.7076 61.824 75.7555 62.8975 83.3512 65.0443C90.947 67.0123 97.5481 70.1431 103.154 74.4367C108.942 78.5515 113.553 83.9186 116.99 90.5381C120.426 97.1575 122.144 105.029 122.144 114.153C122.144 124.53 119.612 133.833 114.548 142.062C109.484 150.292 102.069 156.553 92.3034 160.847L120.359 197.963ZM33.165 142.062H60.564C70.8725 142.062 79.0108 139.558 84.9789 134.548C91.1279 129.539 94.2023 122.741 94.2023 114.153C94.2023 109.144 93.2076 105.029 91.2183 101.809C89.4098 98.4098 86.8778 95.7263 83.6225 93.7583C80.3672 91.7904 76.6597 90.4486 72.5002 89.733C68.3406 88.8385 64.0906 88.3912 59.7501 88.3912H33.165V142.062Z" fill="#FBAC30"/>
<path d="M355.213 82.765L625.849 17.4763C631.679 16.0701 637.605 19.5101 639.274 25.2686C641.039 31.3595 637.376 37.6676 631.21 39.1552L360.574 104.444C354.745 105.85 348.819 102.41 347.149 96.6516C345.384 90.5607 349.047 84.2526 355.213 82.765Z" fill="#FBAC30" stroke="#FBAC30" stroke-width="5.5"/>
</svg>
